<?xml version="1.0" standalone="no"?>
<!DOCTYPE svg PUBLIC "-//W3C//DTD SVG 20010904//EN"
 "http://www.w3.org/TR/2001/REC-SVG-20010904/DTD/svg10.dtd">
<svg version="1.0" xmlns="http://www.w3.org/2000/svg"
 width="96.000000pt" height="96.000000pt" viewBox="0 0 96.000000 96.000000"
 preserveAspectRatio="xMidYMid meet">

<g transform="translate(0.000000,96.000000) scale(0.100000,-0.100000)"
fill="#000000" stroke="none">
<path d="M0 490 l0 -470 480 0 480 0 0 470 0 470 -480 0 -480 0 0 -470z m431
197 c-17 -17 -22 -18 -35 -7 -9 7 -16 18 -16 24 0 6 7 3 14 -6 15 -20 26 -14
26 15 0 16 2 17 16 7 13 -12 13 -15 -5 -33z"/>
</g>
</svg>
